<svg width="151" height="47" viewBox="0 0 151 47" fill="none" xmlns="http://www.w3.org/2000/svg">
<g clip-path="url(#clip0_232_3919)">
<path d="M79.3967 11.8088C79.3967 13.5025 78.0377 14.8669 76.3508 14.8669C74.6638 14.8669 73.3048 13.5025 73.3048 11.8088C73.3048 10.1151 74.6169 8.75075 76.3508 8.75075C78.0846 8.7978 79.3967 10.1622 79.3967 11.8088ZM66.8381 17.972C66.8381 18.2543 66.8381 18.7247 66.8381 18.7247C66.8381 18.7247 65.3854 16.8428 62.2926 16.8428C57.1849 16.8428 53.2017 20.7477 53.2017 26.1582C53.2017 31.5215 57.138 35.4735 62.2926 35.4735C65.4323 35.4735 66.8381 33.5445 66.8381 33.5445V34.3443C66.8381 34.7207 67.1193 35.003 67.4941 35.003H71.2898V17.3133C71.2898 17.3133 67.8222 17.3133 67.4941 17.3133C67.1193 17.3133 66.8381 17.6426 66.8381 17.972ZM66.8381 29.3103C66.1352 30.3453 64.7294 31.2392 63.0424 31.2392C60.0434 31.2392 57.7472 29.3574 57.7472 26.1582C57.7472 22.959 60.0434 21.0771 63.0424 21.0771C64.6825 21.0771 66.1821 22.018 66.8381 23.006V29.3103ZM74.1015 17.3133H78.6001V35.003H74.1015V17.3133ZM141.299 16.8428C138.206 16.8428 136.754 18.7247 136.754 18.7247V8.7978H132.255V35.003C132.255 35.003 135.723 35.003 136.051 35.003C136.426 35.003 136.707 34.6737 136.707 34.3443V33.5445C136.707 33.5445 138.16 35.4735 141.252 35.4735C146.36 35.4735 150.343 31.5215 150.343 26.1582C150.343 20.7948 146.36 16.8428 141.299 16.8428ZM140.549 31.1922C138.816 31.1922 137.457 30.2983 136.754 29.2633V22.959C137.457 22.018 138.956 21.03 140.549 21.03C143.549 21.03 145.845 22.9119 145.845 26.1111C145.845 29.3103 143.549 31.1922 140.549 31.1922ZM129.912 24.5115V35.05H125.414V25.029C125.414 22.1121 124.476 20.9359 121.946 20.9359C120.587 20.9359 119.181 21.6416 118.291 22.6767V35.003H113.792V17.3133H117.354C117.728 17.3133 118.01 17.6426 118.01 17.972V18.7247C119.322 17.3604 121.056 16.8428 122.789 16.8428C124.757 16.8428 126.398 17.4074 127.71 18.5365C129.303 19.8539 129.912 21.5475 129.912 24.5115ZM102.874 16.8428C99.7809 16.8428 98.3283 18.7247 98.3283 18.7247V8.7978H93.8297V35.003C93.8297 35.003 97.2973 35.003 97.6254 35.003C98.0002 35.003 98.2814 34.6737 98.2814 34.3443V33.5445C98.2814 33.5445 99.7341 35.4735 102.827 35.4735C107.935 35.4735 111.918 31.5215 111.918 26.1582C111.965 20.7948 107.981 16.8428 102.874 16.8428ZM102.124 31.1922C100.39 31.1922 99.0312 30.2983 98.3283 29.2633V22.959C99.0312 22.018 100.531 21.03 102.124 21.03C105.123 21.03 107.419 22.9119 107.419 26.1111C107.419 29.3103 105.123 31.1922 102.124 31.1922ZM89.9403 16.8428C91.2992 16.8428 92.0021 17.0781 92.0021 17.0781V21.2653C92.0021 21.2653 88.2533 19.995 85.9103 22.6767V35.05H81.4117V17.3133C81.4117 17.3133 84.8793 17.3133 85.2074 17.3133C85.5822 17.3133 85.8634 17.6426 85.8634 17.972V18.7247C86.7069 17.7367 88.5344 16.8428 89.9403 16.8428ZM43.2205 33.4034C42.9862 32.8388 42.7519 32.2272 42.5176 31.7097C42.1427 30.8629 41.7678 30.0631 41.4398 29.3103L41.3929 29.2633C38.1596 22.2062 34.6919 15.0551 31.0368 7.998L30.8962 7.71572C30.5213 7.01001 30.1464 6.25726 29.7716 5.5045C29.303 4.65766 28.8344 3.76376 28.0846 2.91692C26.5851 1.03503 24.4295 0 22.1333 0C19.7903 0 17.6816 1.03504 16.1352 2.82282C15.4323 3.66967 14.9168 4.56356 14.4482 5.41041C14.0733 6.16316 13.6985 6.91592 13.3236 7.62162L13.183 7.9039C9.57475 14.961 6.06022 22.1121 2.82686 29.1692L2.78 29.2633C2.45198 30.016 2.07709 30.8158 1.70221 31.6627C1.46791 32.1802 1.23361 32.7447 0.999305 33.3564C0.390121 35.0971 0.202679 36.7437 0.436981 38.4374C0.952445 41.966 3.29546 44.9299 6.52883 46.2472C7.7472 46.7648 9.01243 47 10.3245 47C10.6994 47 11.168 46.9529 11.5429 46.9059C13.0893 46.7177 14.6825 46.2002 16.2289 45.3063C18.1502 44.2242 19.9777 42.6717 22.0396 40.4134C24.1015 42.6717 25.9759 44.2242 27.8503 45.3063C29.3967 46.2002 30.9899 46.7177 32.5363 46.9059C32.9112 46.9529 33.3798 47 33.7547 47C35.0668 47 36.3789 46.7648 37.5504 46.2472C40.8306 44.9299 43.1268 41.9189 43.6422 38.4374C44.0171 36.7908 43.8297 35.1441 43.2205 33.4034ZM22.0865 35.8498C19.556 32.6507 17.9159 29.6396 17.3536 27.0991C17.1193 26.017 17.0724 25.0761 17.213 24.2292C17.3067 23.4765 17.5879 22.8178 17.9628 22.2533C18.8531 20.983 20.3526 20.1832 22.0865 20.1832C23.8203 20.1832 25.3667 20.9359 26.2102 22.2533C26.5851 22.8178 26.8662 23.4765 26.9599 24.2292C27.1005 25.0761 27.0537 26.0641 26.8194 27.0991C26.257 29.5926 24.6169 32.6036 22.0865 35.8498ZM40.7837 38.0611C40.4557 40.5075 38.8156 42.6246 36.5195 43.5656C35.3948 44.036 34.1764 44.1772 32.9581 44.036C31.7866 43.8949 30.6151 43.5185 29.3967 42.8128C27.7097 41.8719 26.0227 40.4134 24.0546 38.2492C27.1474 34.4384 29.0218 30.957 29.7247 27.8519C30.0527 26.3934 30.0996 25.0761 29.959 23.8529C29.7716 22.6767 29.3498 21.5946 28.6938 20.6537C27.2411 18.5365 24.8044 17.3133 22.0865 17.3133C19.3686 17.3133 16.9318 18.5836 15.4792 20.6537C14.8231 21.5946 14.4014 22.6767 14.2139 23.8529C14.0265 25.0761 14.0733 26.4404 14.4482 27.8519C15.1511 30.957 17.0724 34.4855 20.1183 38.2963C18.1971 40.4605 16.4632 41.9189 14.7762 42.8599C13.5579 43.5656 12.3864 43.9419 11.2149 44.0831C9.94963 44.2242 8.73126 44.036 7.65348 43.6126C5.35732 42.6717 3.71721 40.5546 3.38918 38.1081C3.2486 36.9319 3.34232 35.7558 3.81093 34.4384C3.95151 33.968 4.18581 33.4975 4.42011 32.9329C4.74813 32.1802 5.12302 31.3804 5.4979 30.5806L5.54476 30.4865C8.77812 23.4765 12.2458 16.3253 15.854 9.36236L15.9946 9.08008C16.3695 8.37437 16.7444 7.62162 17.1193 6.91592C17.4942 6.16316 17.9159 5.45746 18.4314 4.84585C19.4154 3.71672 20.7275 3.1051 22.1802 3.1051C23.6329 3.1051 24.9449 3.71672 25.929 4.84585C26.4445 5.45746 26.8662 6.16316 27.2411 6.91592C27.616 7.62162 27.9909 8.37437 28.3658 9.08008L28.5063 9.36236C32.0677 16.3724 35.5354 23.5235 38.7687 30.5335V30.5806C39.1436 31.3333 39.4717 32.1802 39.8465 32.9329C40.0808 33.4975 40.3151 33.968 40.4557 34.4384C40.8306 35.6617 40.9712 36.8378 40.7837 38.0611Z" fill="#929292"/>
</g>
<defs>
<clipPath id="clip0_232_3919">
<rect width="150" height="47" fill="white" transform="translate(0.343262)"/>
</clipPath>
</defs>
</svg>
