<svg width="217" height="47" viewBox="0 0 217 47" fill="none" xmlns="http://www.w3.org/2000/svg">
<path fill-rule="evenodd" clip-rule="evenodd" d="M212.398 39.9888H211.882V41.1944H212.368C212.813 41.1944 213.09 41.0043 213.09 40.5916C213.09 40.1944 212.844 39.9888 212.398 39.9888ZM213.446 43.4949L212.264 41.7504H211.882V43.4328H211.202V39.3547H212.398C213.227 39.3547 213.779 39.7802 213.779 40.5434C213.779 41.1306 213.474 41.5107 212.982 41.671L214.118 43.3362L213.446 43.4949ZM212.415 38.2611C210.757 38.2611 209.44 39.4327 209.44 41.5291C209.44 43.6044 210.757 44.7803 212.415 44.7803C214.088 44.7803 215.407 43.6044 215.407 41.5291C215.407 39.4327 214.074 38.2611 212.415 38.2611ZM212.415 45.2097C210.364 45.2097 208.934 43.732 208.934 41.5291C208.934 39.3377 210.389 37.8271 212.415 37.8271C214.471 37.8271 215.897 39.3207 215.897 41.5291C215.897 43.7204 214.439 45.2097 212.415 45.2097ZM32.5379 25.7948H21.9467C22.6063 24.7084 32.5379 8.00956 32.5379 8.00956V25.7948ZM28.0161 0.541702L1.16016 45.2071H10.2904C10.2904 45.2071 16.9129 34.0882 17.1412 33.7081H32.5521L32.5578 45.2127L41.2242 45.2114V0.540283H28.0161V0.541702ZM47.3717 0.540283V45.2127H55.7942V0.541702L47.3717 0.540283ZM61.9244 0.540283H70.334V45.2127H61.9244V0.540283ZM88.8697 24.1155C84.2882 22.8786 83.3306 22.1836 83.4513 20.2106C83.5505 18.4206 84.9592 17.3909 87.3122 17.3909C90.2227 17.3909 93.7814 18.4518 96.8394 20.2276L97.3219 20.5127L98.4805 13.059L98.2067 12.9243C95.0663 11.4421 91.3076 10.652 87.3122 10.652C83.4668 10.652 80.1975 11.8804 78.0855 14.1044C76.4147 15.8788 75.5566 18.1752 75.6006 20.7269C75.7467 27.6146 78.9195 29.5635 86.4356 31.562C91.4055 32.8301 92.4141 33.5833 92.3787 36.0342C92.3502 38.2385 91.0795 39.0696 87.6994 39.0696C84.1649 39.0696 80.179 37.7221 76.7208 35.3832L76.2189 35.0385L75.0517 42.5206L75.3026 42.6624C77.9945 44.1943 82.5945 45.8026 87.4441 45.8026C92.1446 45.8026 95.6157 44.6509 97.763 42.4057C99.4365 40.644 100.259 38.2626 100.221 35.3066C100.112 27.9097 96.5048 26.1523 88.8697 24.1155ZM120.674 37.6839L120.239 37.8044C119.66 37.969 118.928 38.0526 117.928 38.0526C115.432 38.0526 114.272 36.8881 114.272 34.3691V18.5539H120.447L120.561 11.2804H114.272V0.540283H105.988V11.2804H101.662V18.5525H105.988V35.6867C105.988 42.4681 109.412 45.7858 116.472 45.7858C118.75 45.7858 120.145 45.5176 121.388 45.2382L121.765 45.1631L120.674 37.6839ZM135.689 39.0696C133.617 39.0696 132.335 37.7548 132.335 35.6456C132.335 31.8883 135.837 29.433 142.472 28.5111V35.8697C140.413 37.9505 138.074 39.0696 135.689 39.0696ZM138.599 10.5811C133.362 10.5811 129.407 11.9002 126.263 13.1768L125.965 13.2974L127.044 20.4617L127.515 20.2475C131.29 18.5213 134.484 17.7157 137.596 17.7157C140.912 17.7157 142.472 19.1355 142.472 22.1935V23.0701C130.036 24.3935 123.98 28.7834 123.98 36.4938C123.98 42.1901 127.548 45.8664 133.081 45.8664C136.911 45.8664 140.091 44.4198 143.021 41.4724C143.18 42.4596 143.607 45.2084 143.607 45.2084H150.883V21.9609C150.883 14.2065 146.981 10.5811 138.599 10.5811ZM172.484 37.6839L172.056 37.8044C171.48 37.969 170.737 38.0526 169.754 38.0526C167.249 38.0526 166.074 36.8881 166.074 34.3691V18.5539H172.263L172.376 11.2804H166.074V0.540283H157.777V11.2804H153.472V18.5525H157.777V35.6867C157.777 42.4681 161.223 45.7858 168.287 45.7858C170.558 45.7858 172.019 45.5051 173.202 45.2382L173.571 45.1631L172.484 37.6839ZM183.338 24.5211C183.717 19.656 185.763 16.8604 188.997 16.8604C193.352 16.8604 194.506 20.9212 194.678 24.5211H183.338ZM201.36 35.0697C197.593 37.7732 194.512 38.9377 191.03 38.9377C186.508 38.9377 183.701 35.7719 183.218 30.2642H202.843L202.93 27.9437C202.93 16.4462 198.31 10.5981 189.187 10.5825C185.179 10.5698 181.892 11.8704 179.417 14.4363C176.403 17.5355 174.809 22.3595 174.809 28.3394C174.809 39.1618 180.724 45.8664 190.201 45.8664C194.831 45.8664 199.031 44.5319 202.693 41.9234L202.9 41.7816L201.879 34.6896L201.36 35.0697Z" fill="#929292"/>
</svg>
