<svg width="238" height="47" viewBox="0 0 238 47" fill="none" xmlns="http://www.w3.org/2000/svg">
<g clip-path="url(#clip0_239_4231)">
<mask id="mask0_239_4231" style="mask-type:luminance" maskUnits="userSpaceOnUse" x="0" y="0" width="238" height="47">
<path d="M237.999 0H0.625V46.5991H237.999V0Z" fill="white"/>
</mask>
<g mask="url(#mask0_239_4231)">
<path d="M48.8358 37.1855C48.992 37.3419 49.2578 37.1542 49.1643 36.951L31.3376 6.1455L27.96 0.328455C27.8349 0.0626221 27.6003 0.0626221 27.4752 0.0626221C27.3345 0.0626221 27.1468 0.125171 27.0374 0.391005L22.2211 16.5912C21.4549 19.1401 23.3314 21.6733 25.9897 21.6733H30.8372C33.6519 21.6733 36.3259 22.9087 38.1868 25.0197L48.8358 37.1855ZM18.8747 17.6546L22.6433 5.06654C22.7215 4.83197 22.4087 4.69126 22.2836 4.89454L0.688575 42.2676C0.563476 42.5334 0.6573 42.7367 0.766761 42.8618C0.860584 43.0026 1.06387 43.1277 1.36098 43.0026L1.42352 42.9713L20.5635 35.9345C22.8466 35.0745 23.8317 32.3848 22.612 30.2425L19.766 25.2856C18.4212 22.9712 18.0928 20.2034 18.8747 17.6546ZM45.6613 45.8172H51.3847C51.6349 45.8172 51.7754 45.614 51.8381 45.5045C51.8694 45.4107 51.9321 45.1761 51.7754 44.9885L37.358 28.4599C35.5753 26.4114 32.3384 26.7398 30.978 29.0854L28.2414 33.8391C27.0843 35.825 25.286 37.3106 23.1437 38.1081L3.08108 45.442C2.87779 45.5045 2.90907 45.8172 3.14363 45.8172H45.6613Z" fill="#929292"/>
<path fill-rule="evenodd" clip-rule="evenodd" d="M86.0832 4.5347L104.332 45.6138H99.641L92.7448 30.1016L91.2437 33.4793C91.0405 33.9484 90.5871 34.2455 90.0554 34.2455H70.4459L65.3951 45.6138H60.7041L78.9529 4.5347C79.5468 3.08043 80.9701 2.1422 82.5178 2.1422C84.0973 2.1422 85.4892 3.08043 86.0832 4.5347ZM92.8697 29.8045H92.6195L92.7448 30.1016L92.8697 29.8045ZM92.6043 29.8045L82.8463 7.84977C82.7215 7.55268 82.2833 7.55268 82.1584 7.84977L72.4009 29.8045H92.6043ZM168.82 46.5833C155.935 46.5833 145.521 36.1689 145.521 23.2838C145.521 10.3987 155.935 -0.0157471 168.82 -0.0157471C181.721 -0.0157471 192.135 10.3987 192.135 23.2838C192.135 36.1689 181.721 46.5833 168.82 46.5833ZM187.897 23.2838C187.897 12.7286 179.375 4.19068 168.805 4.19068C158.25 4.19068 149.711 12.7286 149.711 23.2838C149.711 33.8546 158.25 42.3925 168.805 42.3925C179.375 42.3925 187.897 33.8546 187.897 23.2838ZM129.649 22.8303C129.446 23.1274 129.446 23.4871 129.649 23.7842L144.301 45.5669H139.203L126.146 26.161C125.88 25.7701 125.255 25.7701 124.989 26.161L111.932 45.5669H106.834L121.517 23.7842C121.721 23.4871 121.721 23.1274 121.517 22.8303L106.834 1.04759H111.932L125.02 20.4847C125.286 20.8757 125.912 20.8757 126.177 20.4847L139.234 1.04759H144.332L129.649 22.8303ZM237.984 1.04759V45.5356H233.684L203.3 5.28528V45.5356H199.11V5.05071C199.11 2.93969 200.658 1.11014 202.706 0.875579C204.129 0.719206 205.521 1.28215 206.412 2.40803L233.793 38.6552V1.04759H237.984Z" fill="#929292"/>
</g>
</g>
<defs>
<clipPath id="clip0_239_4231">
<rect width="237.374" height="47" fill="white" transform="translate(0.625977)"/>
</clipPath>
</defs>
</svg>
