<svg width="150" height="47" viewBox="0 0 150 47" fill="none" xmlns="http://www.w3.org/2000/svg">
<g clip-path="url(#clip0_232_3910)">
<path d="M18.7634 16.7705V21.7909H30.8792C30.5575 24.5682 29.5926 26.7045 28.0915 28.0932C26.376 29.8023 23.5883 31.725 18.7634 31.725C11.3653 31.725 5.57541 25.7432 5.57541 18.3727C5.57541 11.0023 11.258 5.02045 18.7634 5.02045C22.7305 5.02045 25.7327 6.62273 27.8771 8.65227L31.4153 5.12727C28.4132 2.24318 24.3388 0 18.7634 0C8.57756 0 0 8.225 0 18.3727C0 28.5205 8.57756 36.7455 18.7634 36.7455C24.2316 36.7455 28.4132 34.9295 31.6297 31.6182C34.9535 28.3068 36.0257 23.6068 36.0257 19.8682C36.0257 18.6932 35.9185 17.625 35.8113 16.7705H18.7634Z" fill="#929292"/>
<path d="M51.0364 12.6046C44.496 12.6046 39.0278 17.625 39.0278 24.4614C39.0278 31.2977 44.3888 36.3182 51.0364 36.3182C57.684 36.3182 63.045 31.4046 63.045 24.5682C63.045 17.625 57.684 12.6046 51.0364 12.6046ZM51.0364 31.725C47.3909 31.725 44.2816 28.7341 44.2816 24.5682C44.2816 20.2955 47.3909 17.4114 51.0364 17.4114C54.6819 17.4114 57.7912 20.2955 57.7912 24.5682C57.7912 28.7341 54.6819 31.725 51.0364 31.725Z" fill="#929292"/>
<path d="M109.685 15.275H109.471C108.291 13.8864 106.04 12.6046 103.145 12.6046C97.1407 12.6046 91.9941 17.7318 91.9941 24.4614C91.9941 31.0841 97.1407 36.3182 103.145 36.3182C106.04 36.3182 108.291 35.0364 109.471 33.6477H109.685V35.3568C109.685 39.8432 107.219 42.3 103.359 42.3C100.143 42.3 98.2129 40.0568 97.3551 38.0273L92.8519 39.95C94.1385 43.0477 97.6768 47 103.467 47C109.578 47 114.832 43.3682 114.832 34.6091V13.2455H109.9V15.275H109.685ZM103.681 31.725C100.036 31.725 97.3551 28.6273 97.3551 24.5682C97.3551 20.4023 100.143 17.4114 103.681 17.4114C107.219 17.4114 110.007 20.5091 110.007 24.675C110.114 28.7341 107.327 31.725 103.681 31.725Z" fill="#929292"/>
<path d="M77.7342 12.6046C71.1938 12.6046 65.7256 17.625 65.7256 24.4614C65.7256 31.2977 71.0866 36.3182 77.7342 36.3182C84.3818 36.3182 89.7427 31.4046 89.7427 24.5682C89.7427 17.625 84.3818 12.6046 77.7342 12.6046ZM77.7342 31.725C74.0887 31.725 70.9793 28.7341 70.9793 24.5682C70.9793 20.2955 74.0887 17.4114 77.7342 17.4114C81.3796 17.4114 84.489 20.2955 84.489 24.5682C84.489 28.7341 81.3796 31.725 77.7342 31.725Z" fill="#929292"/>
<path d="M118.799 0.534119H123.946V36.425H118.799V0.534119Z" fill="#929292"/>
<path d="M139.814 31.725C137.134 31.725 135.311 30.55 134.024 28.0932L150 21.5773L149.464 20.1886C148.499 17.5182 145.39 12.6046 139.278 12.6046C133.167 12.6046 128.02 17.4114 128.02 24.4614C128.02 31.0841 133.059 36.3182 139.814 36.3182C145.282 36.3182 148.392 33.0068 149.786 31.0841L145.711 28.4136C144.317 30.4432 142.495 31.725 139.814 31.725ZM139.493 17.0909C141.637 17.0909 143.46 18.1591 143.996 19.6546L133.274 24.1409C133.167 19.2273 136.812 17.0909 139.493 17.0909Z" fill="#929292"/>
</g>
<defs>
<clipPath id="clip0_232_3910">
<rect width="150" height="47" fill="white"/>
</clipPath>
</defs>
</svg>
