<svg width="22" height="26" viewBox="0 0 22 26" fill="none" xmlns="http://www.w3.org/2000/svg">
<path d="M22 1V21C22 21.2652 21.8946 21.5196 21.7071 21.7071C21.5196 21.8946 21.2652 22 21 22H4C3.46957 22 2.96086 22.2107 2.58579 22.5858C2.21071 22.9609 2 23.4696 2 24H19C19.2652 24 19.5196 24.1054 19.7071 24.2929C19.8946 24.4804 20 24.7348 20 25C20 25.2652 19.8946 25.5196 19.7071 25.7071C19.5196 25.8946 19.2652 26 19 26H1C0.734784 26 0.48043 25.8946 0.292893 25.7071C0.105357 25.5196 0 25.2652 0 25V4C0 2.93913 0.421427 1.92172 1.17157 1.17157C1.92172 0.421427 2.93913 0 4 0H21C21.2652 0 21.5196 0.105357 21.7071 0.292893C21.8946 0.48043 22 0.734784 22 1Z" fill="black"/>
</svg>
